<svg width="537" height="54" viewBox="0 0 537 54" fill="none" xmlns="http://www.w3.org/2000/svg">
<path d="M86.188 27.328C86.188 24.832 86.728 22.612 87.808 20.668C88.888 18.7 90.388 17.176 92.308 16.096C94.252 14.992 96.448 14.44 98.896 14.44C101.896 14.44 104.464 15.232 106.6 16.816C108.736 18.4 110.164 20.56 110.884 23.296H104.116C103.612 22.24 102.892 21.436 101.956 20.884C101.044 20.332 100 20.056 98.824 20.056C96.928 20.056 95.392 20.716 94.216 22.036C93.04 23.356 92.452 25.12 92.452 27.328C92.452 29.536 93.04 31.3 94.216 32.62C95.392 33.94 96.928 34.6 98.824 34.6C100 34.6 101.044 34.324 101.956 33.772C102.892 33.22 103.612 32.416 104.116 31.36H110.884C110.164 34.096 108.736 36.256 106.6 37.84C104.464 39.4 101.896 40.18 98.896 40.18C96.448 40.18 94.252 39.64 92.308 38.56C90.388 37.456 88.888 35.932 87.808 33.988C86.728 32.044 86.188 29.824 86.188 27.328ZM123.798 40.288C121.83 40.288 120.054 39.868 118.47 39.028C116.91 38.188 115.674 36.988 114.762 35.428C113.874 33.868 113.43 32.044 113.43 29.956C113.43 27.892 113.886 26.08 114.798 24.52C115.71 22.936 116.958 21.724 118.542 20.884C120.126 20.044 121.902 19.624 123.87 19.624C125.838 19.624 127.614 20.044 129.198 20.884C130.782 21.724 132.03 22.936 132.942 24.52C133.854 26.08 134.31 27.892 134.31 29.956C134.31 32.02 133.842 33.844 132.906 35.428C131.994 36.988 130.734 38.188 129.126 39.028C127.542 39.868 125.766 40.288 123.798 40.288ZM123.798 34.96C124.974 34.96 125.97 34.528 126.786 33.664C127.626 32.8 128.046 31.564 128.046 29.956C128.046 28.348 127.638 27.112 126.822 26.248C126.03 25.384 125.046 24.952 123.87 24.952C122.67 24.952 121.674 25.384 120.882 26.248C120.09 27.088 119.694 28.324 119.694 29.956C119.694 31.564 120.078 32.8 120.846 33.664C121.638 34.528 122.622 34.96 123.798 34.96ZM143.732 13.36V40H137.576V13.36H143.732ZM157.337 40.288C155.369 40.288 153.593 39.868 152.009 39.028C150.449 38.188 149.213 36.988 148.301 35.428C147.413 33.868 146.969 32.044 146.969 29.956C146.969 27.892 147.425 26.08 148.337 24.52C149.249 22.936 150.497 21.724 152.081 20.884C153.665 20.044 155.441 19.624 157.409 19.624C159.377 19.624 161.153 20.044 162.737 20.884C164.321 21.724 165.569 22.936 166.481 24.52C167.393 26.08 167.849 27.892 167.849 29.956C167.849 32.02 167.381 33.844 166.445 35.428C165.533 36.988 164.273 38.188 162.665 39.028C161.081 39.868 159.305 40.288 157.337 40.288ZM157.337 34.96C158.513 34.96 159.509 34.528 160.325 33.664C161.165 32.8 161.585 31.564 161.585 29.956C161.585 28.348 161.177 27.112 160.361 26.248C159.569 25.384 158.585 24.952 157.409 24.952C156.209 24.952 155.213 25.384 154.421 26.248C153.629 27.088 153.233 28.324 153.233 29.956C153.233 31.564 153.617 32.8 154.385 33.664C155.177 34.528 156.161 34.96 157.337 34.96ZM177.271 23.26C177.991 22.156 178.891 21.292 179.971 20.668C181.051 20.02 182.251 19.696 183.571 19.696V26.212H181.879C180.343 26.212 179.191 26.548 178.423 27.22C177.655 27.868 177.271 29.02 177.271 30.676V40H171.115V19.912H177.271V23.26ZM200.298 22.756C200.898 21.82 201.726 21.064 202.782 20.488C203.838 19.912 205.074 19.624 206.49 19.624C208.146 19.624 209.646 20.044 210.99 20.884C212.334 21.724 213.39 22.924 214.158 24.484C214.95 26.044 215.346 27.856 215.346 29.92C215.346 31.984 214.95 33.808 214.158 35.392C213.39 36.952 212.334 38.164 210.99 39.028C209.646 39.868 208.146 40.288 206.49 40.288C205.098 40.288 203.862 40 202.782 39.424C201.726 38.848 200.898 38.104 200.298 37.192V49.576H194.142V19.912H200.298V22.756ZM209.082 29.92C209.082 28.384 208.65 27.184 207.786 26.32C206.946 25.432 205.902 24.988 204.654 24.988C203.43 24.988 202.386 25.432 201.522 26.32C200.682 27.208 200.262 28.42 200.262 29.956C200.262 31.492 200.682 32.704 201.522 33.592C202.386 34.48 203.43 34.924 204.654 34.924C205.878 34.924 206.922 34.48 207.786 33.592C208.65 32.68 209.082 31.456 209.082 29.92ZM217.352 29.92C217.352 27.856 217.736 26.044 218.504 24.484C219.296 22.924 220.364 21.724 221.708 20.884C223.052 20.044 224.552 19.624 226.208 19.624C227.624 19.624 228.86 19.912 229.916 20.488C230.996 21.064 231.824 21.82 232.4 22.756V19.912H238.556V40H232.4V37.156C231.8 38.092 230.96 38.848 229.88 39.424C228.824 40 227.588 40.288 226.172 40.288C224.54 40.288 223.052 39.868 221.708 39.028C220.364 38.164 219.296 36.952 218.504 35.392C217.736 33.808 217.352 31.984 217.352 29.92ZM232.4 29.956C232.4 28.42 231.968 27.208 231.104 26.32C230.264 25.432 229.232 24.988 228.008 24.988C226.784 24.988 225.74 25.432 224.876 26.32C224.036 27.184 223.616 28.384 223.616 29.92C223.616 31.456 224.036 32.68 224.876 33.592C225.74 34.48 226.784 34.924 228.008 34.924C229.232 34.924 230.264 34.48 231.104 33.592C231.968 32.704 232.4 31.492 232.4 29.956ZM249.165 13.36V40H243.009V13.36H249.165ZM272.563 29.632C272.563 30.208 272.527 30.808 272.455 31.432H258.523C258.619 32.68 259.015 33.64 259.711 34.312C260.431 34.96 261.307 35.284 262.339 35.284C263.875 35.284 264.943 34.636 265.543 33.34H272.095C271.759 34.66 271.147 35.848 270.259 36.904C269.395 37.96 268.303 38.788 266.983 39.388C265.663 39.988 264.187 40.288 262.555 40.288C260.587 40.288 258.835 39.868 257.299 39.028C255.763 38.188 254.563 36.988 253.699 35.428C252.835 33.868 252.403 32.044 252.403 29.956C252.403 27.868 252.823 26.044 253.663 24.484C254.527 22.924 255.727 21.724 257.263 20.884C258.799 20.044 260.563 19.624 262.555 19.624C264.499 19.624 266.227 20.032 267.739 20.848C269.251 21.664 270.427 22.828 271.267 24.34C272.131 25.852 272.563 27.616 272.563 29.632ZM266.263 28.012C266.263 26.956 265.903 26.116 265.183 25.492C264.463 24.868 263.563 24.556 262.483 24.556C261.451 24.556 260.575 24.856 259.855 25.456C259.159 26.056 258.727 26.908 258.559 28.012H266.263ZM287.006 34.78V40H283.874C281.642 40 279.902 39.46 278.654 38.38C277.406 37.276 276.782 35.488 276.782 33.016V25.024H274.334V19.912H276.782V15.016H282.938V19.912H286.97V25.024H282.938V33.088C282.938 33.688 283.082 34.12 283.37 34.384C283.658 34.648 284.138 34.78 284.81 34.78H287.006ZM301.631 34.78V40H298.499C296.267 40 294.527 39.46 293.279 38.38C292.031 37.276 291.407 35.488 291.407 33.016V25.024H288.959V19.912H291.407V15.016H297.563V19.912H301.595V25.024H297.563V33.088C297.563 33.688 297.707 34.12 297.995 34.384C298.283 34.648 298.763 34.78 299.435 34.78H301.631ZM323.996 29.632C323.996 30.208 323.96 30.808 323.888 31.432H309.956C310.052 32.68 310.448 33.64 311.144 34.312C311.864 34.96 312.74 35.284 313.772 35.284C315.308 35.284 316.376 34.636 316.976 33.34H323.528C323.192 34.66 322.58 35.848 321.692 36.904C320.828 37.96 319.736 38.788 318.416 39.388C317.096 39.988 315.62 40.288 313.988 40.288C312.02 40.288 310.268 39.868 308.732 39.028C307.196 38.188 305.996 36.988 305.132 35.428C304.268 33.868 303.836 32.044 303.836 29.956C303.836 27.868 304.256 26.044 305.096 24.484C305.96 22.924 307.16 21.724 308.696 20.884C310.232 20.044 311.996 19.624 313.988 19.624C315.932 19.624 317.66 20.032 319.172 20.848C320.684 21.664 321.86 22.828 322.7 24.34C323.564 25.852 323.996 27.616 323.996 29.632ZM317.696 28.012C317.696 26.956 317.336 26.116 316.616 25.492C315.896 24.868 314.996 24.556 313.916 24.556C312.884 24.556 312.008 24.856 311.288 25.456C310.592 26.056 310.16 26.908 309.992 28.012H317.696ZM342.505 19.624C343.921 19.624 345.157 19.912 346.213 20.488C347.293 21.064 348.121 21.82 348.697 22.756V19.912H354.853V39.964C354.853 41.812 354.481 43.48 353.737 44.968C353.017 46.48 351.901 47.68 350.389 48.568C348.901 49.456 347.041 49.9 344.809 49.9C341.833 49.9 339.421 49.192 337.573 47.776C335.725 46.384 334.669 44.488 334.405 42.088H340.489C340.681 42.856 341.137 43.456 341.857 43.888C342.577 44.344 343.465 44.572 344.521 44.572C345.793 44.572 346.801 44.2 347.545 43.456C348.313 42.736 348.697 41.572 348.697 39.964V37.12C348.097 38.056 347.269 38.824 346.213 39.424C345.157 40 343.921 40.288 342.505 40.288C340.849 40.288 339.349 39.868 338.005 39.028C336.661 38.164 335.593 36.952 334.801 35.392C334.033 33.808 333.649 31.984 333.649 29.92C333.649 27.856 334.033 26.044 334.801 24.484C335.593 22.924 336.661 21.724 338.005 20.884C339.349 20.044 340.849 19.624 342.505 19.624ZM348.697 29.956C348.697 28.42 348.265 27.208 347.401 26.32C346.561 25.432 345.529 24.988 344.305 24.988C343.081 24.988 342.037 25.432 341.173 26.32C340.333 27.184 339.913 28.384 339.913 29.92C339.913 31.456 340.333 32.68 341.173 33.592C342.037 34.48 343.081 34.924 344.305 34.924C345.529 34.924 346.561 34.48 347.401 33.592C348.265 32.704 348.697 31.492 348.697 29.956ZM378.242 29.632C378.242 30.208 378.206 30.808 378.134 31.432H364.202C364.298 32.68 364.694 33.64 365.39 34.312C366.11 34.96 366.986 35.284 368.018 35.284C369.554 35.284 370.622 34.636 371.222 33.34H377.774C377.438 34.66 376.826 35.848 375.938 36.904C375.074 37.96 373.982 38.788 372.662 39.388C371.342 39.988 369.866 40.288 368.234 40.288C366.266 40.288 364.514 39.868 362.978 39.028C361.442 38.188 360.242 36.988 359.378 35.428C358.514 33.868 358.082 32.044 358.082 29.956C358.082 27.868 358.502 26.044 359.342 24.484C360.206 22.924 361.406 21.724 362.942 20.884C364.478 20.044 366.242 19.624 368.234 19.624C370.178 19.624 371.906 20.032 373.418 20.848C374.93 21.664 376.106 22.828 376.946 24.34C377.81 25.852 378.242 27.616 378.242 29.632ZM371.942 28.012C371.942 26.956 371.582 26.116 370.862 25.492C370.142 24.868 369.242 24.556 368.162 24.556C367.13 24.556 366.254 24.856 365.534 25.456C364.838 26.056 364.406 26.908 364.238 28.012H371.942ZM393.73 19.696C396.082 19.696 397.954 20.464 399.346 22C400.762 23.512 401.47 25.6 401.47 28.264V40H395.35V29.092C395.35 27.748 395.002 26.704 394.306 25.96C393.61 25.216 392.674 24.844 391.498 24.844C390.322 24.844 389.386 25.216 388.69 25.96C387.994 26.704 387.646 27.748 387.646 29.092V40H381.49V19.912H387.646V22.576C388.27 21.688 389.11 20.992 390.166 20.488C391.222 19.96 392.41 19.696 393.73 19.696ZM424.684 29.632C424.684 30.208 424.648 30.808 424.576 31.432H410.644C410.74 32.68 411.136 33.64 411.832 34.312C412.552 34.96 413.428 35.284 414.46 35.284C415.996 35.284 417.064 34.636 417.664 33.34H424.216C423.88 34.66 423.268 35.848 422.38 36.904C421.516 37.96 420.424 38.788 419.104 39.388C417.784 39.988 416.308 40.288 414.676 40.288C412.708 40.288 410.956 39.868 409.42 39.028C407.884 38.188 406.684 36.988 405.82 35.428C404.956 33.868 404.524 32.044 404.524 29.956C404.524 27.868 404.944 26.044 405.784 24.484C406.648 22.924 407.848 21.724 409.384 20.884C410.92 20.044 412.684 19.624 414.676 19.624C416.62 19.624 418.348 20.032 419.86 20.848C421.372 21.664 422.548 22.828 423.388 24.34C424.252 25.852 424.684 27.616 424.684 29.632ZM418.384 28.012C418.384 26.956 418.024 26.116 417.304 25.492C416.584 24.868 415.684 24.556 414.604 24.556C413.572 24.556 412.696 24.856 411.976 25.456C411.28 26.056 410.848 26.908 410.68 28.012H418.384ZM434.087 23.26C434.807 22.156 435.707 21.292 436.787 20.668C437.867 20.02 439.067 19.696 440.387 19.696V26.212H438.695C437.159 26.212 436.007 26.548 435.239 27.22C434.471 27.868 434.087 29.02 434.087 30.676V40H427.931V19.912H434.087V23.26ZM442.106 29.92C442.106 27.856 442.49 26.044 443.258 24.484C444.05 22.924 445.118 21.724 446.462 20.884C447.806 20.044 449.306 19.624 450.962 19.624C452.378 19.624 453.614 19.912 454.67 20.488C455.75 21.064 456.578 21.82 457.154 22.756V19.912H463.31V40H457.154V37.156C456.554 38.092 455.714 38.848 454.634 39.424C453.578 40 452.342 40.288 450.926 40.288C449.294 40.288 447.806 39.868 446.462 39.028C445.118 38.164 444.05 36.952 443.258 35.392C442.49 33.808 442.106 31.984 442.106 29.92ZM457.154 29.956C457.154 28.42 456.722 27.208 455.858 26.32C455.018 25.432 453.986 24.988 452.762 24.988C451.538 24.988 450.494 25.432 449.63 26.32C448.79 27.184 448.37 28.384 448.37 29.92C448.37 31.456 448.79 32.68 449.63 33.592C450.494 34.48 451.538 34.924 452.762 34.924C453.986 34.924 455.018 34.48 455.858 33.592C456.722 32.704 457.154 31.492 457.154 29.956ZM478.959 34.78V40H475.827C473.595 40 471.855 39.46 470.607 38.38C469.359 37.276 468.735 35.488 468.735 33.016V25.024H466.287V19.912H468.735V15.016H474.891V19.912H478.923V25.024H474.891V33.088C474.891 33.688 475.035 34.12 475.323 34.384C475.611 34.648 476.091 34.78 476.763 34.78H478.959ZM491.532 40.288C489.564 40.288 487.788 39.868 486.204 39.028C484.644 38.188 483.408 36.988 482.496 35.428C481.608 33.868 481.164 32.044 481.164 29.956C481.164 27.892 481.62 26.08 482.532 24.52C483.444 22.936 484.692 21.724 486.276 20.884C487.86 20.044 489.636 19.624 491.604 19.624C493.572 19.624 495.348 20.044 496.932 20.884C498.516 21.724 499.764 22.936 500.676 24.52C501.588 26.08 502.044 27.892 502.044 29.956C502.044 32.02 501.576 33.844 500.64 35.428C499.728 36.988 498.468 38.188 496.86 39.028C495.276 39.868 493.5 40.288 491.532 40.288ZM491.532 34.96C492.708 34.96 493.704 34.528 494.52 33.664C495.36 32.8 495.78 31.564 495.78 29.956C495.78 28.348 495.372 27.112 494.556 26.248C493.764 25.384 492.78 24.952 491.604 24.952C490.404 24.952 489.408 25.384 488.616 26.248C487.824 27.088 487.428 28.324 487.428 29.956C487.428 31.564 487.812 32.8 488.58 33.664C489.372 34.528 490.356 34.96 491.532 34.96ZM511.466 23.26C512.186 22.156 513.086 21.292 514.166 20.668C515.246 20.02 516.446 19.696 517.766 19.696V26.212H516.074C514.538 26.212 513.386 26.548 512.618 27.22C511.85 27.868 511.466 29.02 511.466 30.676V40H505.31V19.912H511.466V23.26Z" fill="white"/>
<g clip-path="url(#clip0_19_176)">
<path d="M46.8954 11.0138C44.225 8.37939 41.0377 6.31071 37.5286 4.93454C34.0196 3.55873 30.2628 2.90424 26.4883 3.0113C22.7088 3.11665 18.9916 3.99045 15.5702 5.57866C12.1488 7.16642 9.09645 9.43447 6.60393 12.24C-2.74919 22.6956 -2.09534 39.927 8.1082 49.9949L8.30439 50.1885H8.30486C10.139 51.9987 12.8126 52.7055 15.3184 52.0428C17.8245 51.3802 19.7819 49.4493 20.453 46.9765C21.1246 44.5041 20.4083 41.866 18.5737 40.0558C17.9559 39.575 17.5978 38.8389 17.6032 38.0623C17.6092 37.2858 17.9774 36.5551 18.602 36.0829C19.227 35.6102 20.0373 35.4486 20.7992 35.6448C21.5607 35.8416 22.1876 36.3737 22.4983 37.0873L22.6293 37.2808H22.6288C23.1726 38.2564 23.221 39.4273 22.7597 40.4433C22.1351 41.9501 21.9759 43.6055 22.3017 45.2018C22.6274 46.7977 23.424 48.263 24.5912 49.4142C27.5126 52.2828 31.4455 53.925 35.5663 53.9975C39.6871 54.0696 43.6767 52.5659 46.6992 49.8014L47.0916 49.4142H47.1568C52.2312 44.261 55.0481 37.3456 54.9994 30.1611C54.9501 22.9761 52.0397 16.0986 46.8954 11.014L46.8954 11.0138ZM44.2793 46.7035V46.7039C42.0113 48.8702 38.9713 50.0709 35.8145 50.0466C32.6582 50.0223 29.6373 48.7757 27.4039 46.5747C26.7802 45.9634 26.3541 45.1833 26.1799 44.3333C26.0051 43.4834 26.0895 42.6015 26.4226 41.7988C27.3739 39.6483 27.2279 37.1786 26.0302 35.1514L25.8993 34.9578C24.7286 32.9823 22.5932 31.7574 20.2742 31.7309L19.1623 31.8601C17.6032 32.1491 16.2062 32.9932 15.2363 34.2312C14.2658 35.4696 13.79 37.016 13.899 38.5777C14.0076 40.139 14.6938 41.607 15.8267 42.7023C16.5134 43.3046 16.9181 44.1596 16.945 45.0658C16.9724 45.972 16.6192 46.849 15.9695 47.49C15.3198 48.131 14.431 48.4795 13.5126 48.4525C12.5942 48.4259 11.7278 48.0266 11.1173 47.3491L10.9211 47.1555C2.09077 38.5719 1.50222 23.7281 9.54729 14.8218C12.3728 11.7515 15.9736 9.47632 19.9817 8.22889C23.9899 6.98146 28.2618 6.80582 32.3614 7.72063C36.4608 8.63495 40.2408 10.6068 43.315 13.4348C46.3892 16.2624 48.6477 19.8445 49.8595 23.8155C51.0717 27.7861 51.1935 32.003 50.213 36.0363C49.2326 40.069 47.1849 43.7723 44.2795 46.7687L44.2793 46.7035Z" fill="white"/>
<path d="M11.3788 15.9833C10.2318 17.1065 9.58443 18.6339 9.58034 20.2285C9.57623 21.8231 10.215 23.3537 11.3565 24.4827C12.4976 25.6118 14.047 26.2461 15.6635 26.2461C17.2796 26.2461 18.829 25.6118 19.9701 24.4827C21.1116 23.3537 21.7503 21.8231 21.7462 20.2285C21.7421 18.6339 21.0947 17.1065 19.9478 15.9833C18.808 14.8682 17.2682 14.242 15.6635 14.242C14.0585 14.242 12.5186 14.8682 11.3788 15.9833ZM17.2001 21.7272C16.7863 22.1179 16.2361 22.3358 15.6635 22.3358C15.0905 22.3358 14.5402 22.1179 14.1264 21.7272C13.7254 21.3261 13.5023 20.7849 13.505 20.2218C13.5078 19.6591 13.7363 19.1198 14.1406 18.7227C14.5453 18.3252 15.0928 18.1023 15.6635 18.1023C16.2339 18.1023 16.7814 18.3252 17.186 18.7227C17.5903 19.1198 17.8189 19.6591 17.8216 20.2218C17.8243 20.785 17.6012 21.3261 17.2002 21.7272H17.2001Z" fill="white"/>
<path d="M33.5522 11.272C32.2204 9.94801 30.3402 9.31047 28.465 9.54684C26.5897 9.78318 24.9322 10.8663 23.9801 12.478C23.0283 14.0896 22.8896 16.0466 23.6055 17.773C24.3214 19.4994 25.8101 20.7997 27.6342 21.2907C29.4578 21.7819 31.4096 21.4087 32.9148 20.2801C34.4205 19.1519 35.3088 17.3966 35.3183 15.5316C35.3265 13.9365 34.6914 12.4036 33.5522 11.2719V11.272ZM30.8051 17.0159C30.3912 17.4062 29.841 17.6245 29.268 17.6245C28.6954 17.6245 28.1451 17.4062 27.7309 17.0159C27.3303 16.6148 27.1072 16.0736 27.1099 15.5105C27.1127 14.9473 27.3412 14.4085 27.7455 14.0109C28.1502 13.6139 28.6977 13.391 29.268 13.391C29.8387 13.391 30.3862 13.6139 30.7909 14.0109C31.1952 14.4084 31.4237 14.9473 31.4265 15.5105C31.4292 16.0737 31.2061 16.6148 30.8051 17.0159H30.8051Z" fill="white"/>
<path d="M40.8779 29.7944C42.7682 29.785 44.547 28.9085 45.6904 27.4229C46.8342 25.9377 47.2124 24.0118 46.7147 22.2125C46.2169 20.4126 44.8997 18.9437 43.1496 18.2374C41.3999 17.531 39.4165 17.6679 37.7832 18.607C36.1499 19.5465 35.0521 21.182 34.8125 23.0322C34.573 24.8825 35.219 26.7376 36.5609 28.0518C37.7079 29.1759 39.2614 29.8025 40.8779 29.7944H40.8779ZM39.308 22.3079C39.8573 21.7663 40.6576 21.5547 41.4077 21.7528C42.1578 21.9513 42.744 22.5294 42.9448 23.2694C43.146 24.0096 42.9315 24.7996 42.3822 25.3412C41.9684 25.732 41.4177 25.9499 40.8451 25.9499C40.2725 25.9499 39.7218 25.732 39.308 25.3412C38.8965 24.941 38.6652 24.395 38.6652 23.8246C38.6652 23.2547 38.8965 22.7086 39.308 22.3079L39.308 22.3079Z" fill="white"/>
<path d="M45.1948 33.7313C44.0564 32.5995 42.5084 31.9607 40.8923 31.9567C39.2763 31.9522 37.7251 32.5829 36.5808 33.7088C35.4365 34.8351 34.7932 36.364 34.7932 37.9585C34.7932 39.5531 35.4365 41.0823 36.5808 42.2082C37.7251 43.3342 39.2763 43.9648 40.8923 43.9608C42.5084 43.9563 44.0564 43.3179 45.1948 42.1858C46.3249 41.0617 46.959 39.5422 46.959 37.9585C46.959 36.3753 46.3249 34.8554 45.1948 33.7313ZM42.4473 39.4752C41.9655 39.9371 41.2934 40.1513 40.6287 40.0545C39.964 39.9578 39.3832 39.5612 39.0569 38.9818C38.7307 38.4024 38.6965 37.7064 38.9643 37.0982C39.2321 36.4904 39.7714 36.0402 40.4234 35.8805C41.0754 35.7207 41.7657 35.8697 42.2903 36.2834C42.8155 36.6971 43.1152 37.3283 43.1015 37.9909C43.0901 38.5514 42.8552 39.0848 42.4473 39.4751L42.4473 39.4752Z" fill="white"/>
</g>
<defs>
<clipPath id="clip0_19_176">
<rect width="55" height="51" fill="white" transform="translate(0 3)"/>
</clipPath>
</defs>
</svg>
